<?xml version="1.0" encoding="utf-8"?>
<!-- Generator: Adobe Illustrator 24.1.3, SVG Export Plug-In . SVG Version: 6.00 Build 0)  -->
<svg version="1.1" id="Layer_1" xmlns="http://www.w3.org/2000/svg" xmlns:xlink="http://www.w3.org/1999/xlink" x="0px" y="0px"
	 viewBox="0 0 1080 1080" style="enable-background:new 0 0 1080 1080;" xml:space="preserve">
<style type="text/css">
	.st0{fill:#003368;}
	.st1{fill:#FEC701;}
	.st2{fill:#16A3B5;}
	.st3{fill:#108089;}
	.st4{fill:#002342;}
	.st5{fill:#666666;}
</style>
<g>
	<g>
		<g>
			<path class="st0" d="M525.49,413.58c2.82-3.29,2.27-4.94-0.5-7.28c-3.85-3.26-7.57-6.68-11.08-9.79c2.02-3.42,4-2.46,5.58-2.48
				c57.5-0.05,115.02,0.07,172.53-0.18c6.17-0.03,7.76,1.79,7.43,7.62c-0.46,8.12-0.41,16.3,0.05,24.42
				c0.3,5.38-1.44,6.81-6.79,6.77c-39.43-0.22-78.88-0.13-118.33-0.12c-3.55,0-7.09-0.14-10.55,1.14
				c-7.78,2.9-12.33,10.42-11.15,18.72c1.02,7.31,8.04,13.57,15.98,13.64c22.14,0.17,44.28,0.1,66.42,0.13
				c16.3,0.01,31.99,2.07,45.25,12.88c1.66,1.36,3.22,2.75,4.69,4.18c-0.8,0.13-31.93,5.1-40.93,6.2
				c-9.11,1.11-21.11,2.17-41.7,3.81c0,0-10.56,1.76-16.08,11.46l0.01,0.03c-6.07,0-12.12-0.01-18.17-0.08
				c-22.95-0.25-40.78-10.39-50.23-31.12C508.47,452.75,509.87,431.81,525.49,413.58z"/>
			<path class="st0" d="M601.09,580.44c0.46,0.26,0.9,0.52,1.31,0.75h-34.73l-2.14-0.76h-0.01l-108.65-36.51
				c56.52-0.03,90.82-0.03,137.33,0c-9.84,5.44-5.87,23.07-5.87,23.07c1.68,4.47,4.78,7.9,7.81,10.36c0.07,0.04,0.12,0.09,0.18,0.14
				C597.36,578.24,599.34,579.43,601.09,580.44z"/>
			<path class="st1" d="M679.05,510.77l-14.95,1.52l-4.59,2.07c-0.35-0.59-0.75-1.17-1.18-1.72l12.9-1.35
				C671.24,511.29,674.45,511.1,679.05,510.77z"/>
			<path class="st0" d="M711.21,264.41c-75.44-83.84-200.82-112.95-305.5-70.85c-138.04,55.5-207.74,203.03-162.75,344.8
				c1.36,4.32,0.62,6.88-2.46,9.96c-10.05,10.04-19.8,20.4-29.66,30.63c2.2,3.9,5.95,2.18,8.96,2.18
				c75.56,0.04,126.49,0.16,202.04,0.16l-3.77-2.61c-8.5-5.56-12.26-16.24-8.78-25.78c2.03-5.57,5.37-8.96,5.37-8.96h-50.45
				c-32.75,0.03-40.94,0.08-73.69,0.13c-5.73,0-7.95-2.07-9.67-7.05c-30.32-87.98-17.41-169.1,42.25-240.44
				c52.22-62.44,121.15-90.64,202.31-84.95c65.94,4.64,120.66,33.74,164.3,83.47c1.64,1.86,2.76,4.85,5.54,4.89
				c14.03,0.18,28.08,0.09,43.42,0.09C730.1,286.2,720.88,275.17,711.21,264.41z"/>
			<g>
				<path class="st2" d="M475.23,691.16c5.79,0.66,11.52,1.14,17.16,1.47c-1.56,0.03-19.17,0.28-28.44-0.14
					c-9.7-0.46-61.66-3.8-81.5-8.7c0,0-29.99-5.83-43.9-10.63c-9.62-7.38-18.81-15.47-27.53-24.26
					c-13.27-13.4-25.43-27.68-36.46-44.75c15.24,0,29.5-0.07,43.77,0.07c2.53,0.03,3.6,2.66,5.06,4.34
					C363.66,655.12,414.18,684.31,475.23,691.16z"/>
				<path class="st2" d="M718.85,566.78c7.37-1.52,22.98-4.96,46.84-11.36c-11.02,26.86-26.91,52.31-47.71,76.27l-37.47-12.51
					c10.12-10.94,19.63-23.08,28.51-36.43C712.54,577.47,715.81,572.14,718.85,566.78z"/>
				<path class="st2" d="M771.11,367.48c8.99,31.64,13.48,62.12,13.39,91.34c-5.5,2.49-20.37,8.92-36.4,13.36
					c2.54-34.08-2.77-69.13-15.29-104.78c-1.91-5.44-4.63-7.12-10.4-7.1c-116.29,0.19-232.57,0.17-348.86,0.19
					c-2.03,0-4.09-0.07-6.11,0.12c-9.18,0.85-16.08,8.52-15.78,17.41c0.28,8.36,7.58,15.82,16.45,15.9
					c23.41,0.21,46.83-0.04,70.23,0.13c10.19,0.06,20.26,0.97,29.68,5.67c25.29,12.63,37.91,37.9,32.31,65.2
					c-5.07,24.73-27.96,44.54-54.7,45.03c-42.98,0.8-85.99,0.29-128.99,0.48c-3.97,0.01-5.34-1.18-5.22-5.22
					c0.24-8.63,0.36-17.32-0.14-25.94c-0.33-5.83,1.19-7.7,7.4-7.65c40.2,0.3,80.4,0.18,120.61,0.12
					c11.96-0.03,20.03-6.19,21.79-16.22c2.12-12.19-7.11-22.68-20.49-22.79c-25.2-0.19-50.39,0.23-75.58-0.27
					c-24.63-0.49-46.37-17.67-51.53-41.11c-3.92-17.79-2.27-35.1,10.66-49.45c3.1-3.42,2.35-5.3-0.57-7.96
					c-3.37-3.08-6.35-6.56-9.5-9.87h-0.01v-0.01c2.3-1.66,4.93-0.87,7.4-0.87c157.63-0.03,315.28-0.05,472.92,0.03
					c2.81,0,6.25-1.47,8.28,2.07c-9.44,9.92-18.66,20.05-28.43,29.62C770.25,358.82,769.59,362.09,771.11,367.48z"/>
				<path class="st3" d="M802.66,325.29c-2.23-1.58-4.8-1.41-7.34-1.4c-159.4,0.01-318.81,0.02-478.21,0.03
					c-1.02,0-2.03,0.1-3.05,0.15c-1.19-4.13,2.27-1.95,3.19-1.97c10.67-0.16,21.35-0.04,32.02-0.04
					c149.7-0.02,299.41-0.04,449.11-0.07c1.52,0,3.06-0.16,4.57,0C805.09,322.21,805.08,322.31,802.66,325.29z"/>
				<path class="st4" d="M421.69,581.19c0.62,0.39,1.22,0.8,1.81,1.19c-69.29,0-113.79-0.01-183.09-0.01c-9.41,0-18.83,0.05-28.25,0
					c-1.28-0.01-3.3,0.85-3.47-1.44c-0.04-0.6,1.4-1.32,2.15-1.98c3.22,2.2,6.88,1.47,10.39,1.47
					c74.72,0.01,124.63,0.01,199.35,0.01C420.96,580.68,421.33,580.93,421.69,581.19z"/>
				<path class="st4" d="M604.49,582.35c-7.74,0.01-15.37,0.01-33.43,0.01l-3.38-1.18l-2.14-0.76c17.52,0,26.69,0.01,35.07,0.01
					h0.48c0.46,0.26,0.9,0.52,1.31,0.75C603.52,581.82,604.34,582.29,604.49,582.35z"/>
			</g>
		</g>
		<g>
			<path class="st5" d="M665.96,680c-13-1.91-16.04-10.71-19.01-19.89c-3.96-12.23-8.41-24.29-12.67-36.47
				c2.85-1.62,5.01,0.12,7.07,0.81c31.66,10.54,63.3,21.15,94.88,31.93c3.3,1.12,6.15,1.23,9.45,0.2
				c35.8-11.19,71.69-22.09,107.45-33.42c26.04-8.25,50.6-6.23,74.13,8.29c14.83,9.15,17.2,20.94,5.57,33.92
				c-11.83,13.2-26.98,21.33-43.51,26.86c-15.92,5.32-32.09,9.92-48.12,14.93c-1.56,0.49-3.97,0.02-4.48,2.01
				c-0.5,1.96,1.66,2.83,2.9,3.93c19.6,17.36,39.22,34.69,58.84,52.02c20.76,18.34,41.52,36.68,62.28,55.02
				c0.49,0.43,0.99,0.87,1.44,1.34c3.02,3.18,6.82,6.46,3.79,11.28c-3.1,4.93-7.85,3.61-12.26,1.78
				c-44.95-18.6-89.88-37.24-134.83-55.85c-31.84-13.19-63.71-26.33-95.52-39.58c-3.02-1.26-5.9-1.05-8.95-0.62
				c-46.92,6.62-93.87,7.66-140.84,0.6c-4.5-0.68-9.07-1.47-13.07-3.94c-5.82-3.59-6.8-8.96-2.65-14.39c3-3.94,7.2-6.24,11.49-8.45
				c5.41-2.79,8.51-6.89,8.99-13.33c1.86-25.24,3.2-50.51,4-75.81c0.31-9.84,2.31-10.75,12.01-9.96
				c12.7,1.04,20.01,6.43,23.04,19.36c2.72,11.61,8.42,22.49,11.53,34.04C633.92,685.3,649.28,689.24,665.96,680z"/>
			<path class="st5" d="M485.54,776.16c-71.71-0.26-141.81-9.97-208.86-36.62c-44.65-17.74-85.51-41.67-118.97-76.74
				c-22.26-23.33-38.63-50.03-43.47-82.62c-4.68-31.49,3.39-60.19,19.71-86.88c15-24.52,35.2-44.33,57.63-61.99
				c1.83-1.44,4.17-2.43,6.42-3.07c3.43-0.98,6.63,0.18,8.83,2.87c2.12,2.59,1.81,5.69,0.49,8.68c-1.74,3.92-5.06,6.52-7.91,9.5
				c-23.83,24.95-36.47,54.06-32.57,89.07c3.13,28.09,15.99,51.82,33.88,73.13c26.02,31,60.11,49.97,96.95,64.74
				c49.46,19.84,100.99,30,154.09,33.22c22.28,1.35,44.49,0.62,66.72-0.32c5.14-0.22,12.22-1.14,12.99,5.37
				c0.76,6.39-6.43,7.45-11.36,8.55c-27.03,6.04-54.49,7.26-82.03,5.99c-75.17-3.47-146.68-20.72-212.7-57.86
				c-7.4-4.16-14.25-9.28-21.45-13.8c-2.74-1.72-6.04-6.14-8.92-2.47c-3.2,4.07,2.07,6.29,4.61,8.53
				c28.99,25.56,62.2,44.09,98.04,58.06c49.16,19.16,100.36,29.16,152.79,33.65c44.05,3.77,88.06,3.32,132.09-0.17
				c3.47-0.27,6.98-0.26,10.46-0.12c3.2,0.13,6.37,1.1,7.09,4.64c0.8,3.93-2.11,6.08-5.23,7.33c-6.35,2.53-13.21,2.81-19.88,3.63
				C545.3,774.11,515.51,776.56,485.54,776.16z"/>
			<path class="st5" d="M927.32,403.52c-0.57,24.19-10.57,43.59-26.14,60.46c-24.84,26.91-56.15,43.96-89.44,57.73
				c-6.22,2.57-12.47,5-18.76,7.29c-6.71,2.46-13.45,4.77-20.23,6.92c-14.62,4.67-29.4,8.68-44.31,12.12
				c-3.84,0.89-7.69,1.74-11.55,2.56c-25.56,5.4-51.49,9.26-77.66,12.03c-6.72,0.71-13.45,1.39-20.18,1.95
				c-2.37,0.19-4.83,0.28-7.13-0.16c-2.59-0.49-5.13-1.65-5.38-4.88c-0.27-3.36,1.65-5.58,4.65-6.21
				c5.53-1.16,11.15-1.89,16.76-2.66c31.06-4.3,61.83-9.64,91.95-17.38c5.46-1.4,10.89-2.88,16.3-4.45
				c14.27-4.12,28.37-8.85,42.27-14.32c4.28-1.69,8.54-3.44,12.78-5.28c5.9-2.54,11.76-5.23,17.58-8.08
				c23.24-11.38,44.78-25.33,63.63-43.21c0.79-0.75,1.73-1.38,2.39-2.22c1.25-1.62,4.14-3.24,2.42-5.35
				c-1.79-2.19-4.01,0.23-5.63,1.39c-25.36,18.2-52.87,31.59-81.76,41.84c-2.69,0.95-5.38,1.88-8.09,2.77
				c-10.13,3.37-20.42,6.37-30.83,9.08c-2.81,0.73-5.63,1.44-8.44,2.13c-6.28,1.53-12.58,2.95-18.89,4.26
				c-35.69,7.43-71.87,11.44-108.42,12.78c-9.07,0.34-13.93-2.1-13.28-6.87c0.98-7.2,7.15-6.44,12.26-6.81
				c38.06-2.74,75.72-7.7,112.55-16.93c6.53-1.63,13.03-3.4,19.5-5.33c6.86-2.02,13.68-4.21,20.47-6.58
				c5.8-2.02,11.55-4.13,17.23-6.38c1.42-0.55,2.83-1.12,4.23-1.7c24.63-10.09,47.73-22.98,66.81-42.61
				c12.68-13.04,21.52-28.26,20.18-47.3c-1.19-16.96-10.15-30.48-21.32-42.45c-19.64-21.03-43.11-36.68-69.52-47.99
				c-2.2-0.94-4.43-1.9-6.43-3.18c-3.38-2.17-5.6-5.21-3.86-9.36c1.73-4.14,5.41-6,9.63-4.78c6.9,1.98,13.71,4.35,20.37,7.03
				c35.45,14.27,69.26,31.29,95.97,59.56C916.22,360.1,926.84,379.96,927.32,403.52z"/>
			<path class="st5" d="M562.32,642.65c-6.57-3.93-12.12-7.25-17.68-10.56c-36.72-21.85-73.44-43.71-110.17-65.56
				c-0.94-0.56-1.93-1.03-2.82-1.64c-2.52-1.74-4.43-3.99-2.84-7.13c1.5-2.97,4.17-3.31,7.29-2.25
				c14.04,4.73,28.14,9.29,42.19,14.01c28.52,9.56,57.01,19.24,85.55,28.73c4.67,1.55,7.52,2.91,3.06,8.01
				c-2.98,3.4-3.13,8.01-3.34,12.4C563.19,626.2,562.78,633.76,562.32,642.65z"/>
		</g>
	</g>
	<g>
		<path class="st2" d="M316.23,787.92v28.85h-2.25c-0.75-5.54-2.07-9.95-3.97-13.22c-1.9-3.27-4.61-5.87-8.13-7.79
			c-3.52-1.92-7.18-2.88-10.98-2.88c-4.25,0-7.77,1.3-10.56,3.9c-2.8,2.6-4.2,5.54-4.2,8.84c0,2.55,0.9,4.87,2.7,6.97
			c2.5,3.1,8.54,7.19,18.13,12.29c7.74,4.2,13.04,7.41,15.88,9.63c2.85,2.22,5.04,4.85,6.59,7.87c1.55,3.02,2.32,6.21,2.32,9.55
			c0,6.29-2.45,11.73-7.34,16.3c-4.9,4.57-11.19,6.86-18.88,6.86c-2.45,0-4.72-0.18-6.82-0.53c-1.3-0.2-3.95-0.95-7.94-2.25
			c-4-1.3-6.52-1.95-7.57-1.95c-1.05,0-1.86,0.3-2.44,0.9c-0.57,0.6-1.01,1.87-1.31,3.82h-2.25v-28.55h2.25
			c1.05,5.94,2.47,10.4,4.27,13.37c1.8,2.97,4.56,5.45,8.28,7.42c3.72,1.97,7.78,2.96,12.18,2.96c5.14,0,9.2-1.35,12.18-4.05
			c2.97-2.7,4.46-5.89,4.46-9.59c0-2.05-0.56-4.12-1.69-6.22c-1.12-2.1-2.88-4.05-5.28-5.84c-1.6-1.2-5.96-3.8-13.07-7.79
			c-7.12-4-12.19-7.18-15.21-9.55c-3.02-2.37-5.31-4.99-6.86-7.87c-1.55-2.87-2.32-6.03-2.32-9.48c0-5.99,2.3-11.15,6.89-15.47
			c4.6-4.32,10.44-6.48,17.53-6.48c4.39,0,9.07,1.1,14.01,3.3c2.3,1,3.92,1.5,4.87,1.5c1.05,0,1.91-0.31,2.58-0.94
			c0.67-0.62,1.24-1.91,1.69-3.86H316.23z"/>
		<path class="st2" d="M366.81,864.87c-5.8,4.5-9.42,7.07-10.86,7.72c-2.2,1.05-4.55,1.57-7.04,1.57c-3.9,0-7.11-1.34-9.63-4.01
			c-2.52-2.67-3.78-6.18-3.78-10.53c0-2.7,0.6-5.07,1.8-7.12c1.7-2.75,4.63-5.36,8.8-7.83c4.17-2.47,11.08-5.46,20.72-8.95v-2.25
			c0-5.59-0.89-9.44-2.66-11.54c-1.77-2.1-4.36-3.15-7.75-3.15c-2.6,0-4.65,0.7-6.14,2.1c-1.55,1.4-2.32,3-2.32,4.8l0.07,3.6
			c0,1.85-0.48,3.28-1.42,4.31c-0.95,1.02-2.22,1.54-3.82,1.54c-1.5,0-2.72-0.52-3.67-1.57c-0.95-1.05-1.42-2.5-1.42-4.35
			c0-3.55,1.8-6.79,5.39-9.74c3.6-2.95,8.64-4.42,15.13-4.42c4.99,0,9.09,0.85,12.29,2.55c2.45,1.25,4.24,3.22,5.39,5.92
			c0.7,1.8,1.05,5.42,1.05,10.86v19.11c0,5.35,0.11,8.62,0.34,9.81c0.23,1.2,0.56,2.01,1.01,2.43c0.45,0.43,1,0.64,1.65,0.64
			c0.65,0,1.22-0.15,1.72-0.45c0.85-0.55,2.5-2.05,4.95-4.5v3.45c-4.6,6.14-8.97,9.22-13.11,9.22c-2.05,0-3.66-0.7-4.83-2.1
			C367.47,870.59,366.86,868.22,366.81,864.87z M366.81,860.9v-21.43c-6.19,2.45-10.19,4.17-11.99,5.17
			c-3.25,1.8-5.56,3.68-6.93,5.66c-1.37,1.97-2.06,4.13-2.06,6.48c0,2.95,0.87,5.39,2.62,7.34c1.75,1.95,3.77,2.92,6.07,2.92
			C357.62,867.04,361.71,865,366.81,860.9z"/>
		<path class="st2" d="M431.47,866.82c-2.75,2.85-5.43,4.9-8.05,6.14c-2.62,1.25-5.46,1.87-8.5,1.87c-6.14,0-11.5-2.57-16.07-7.72
			c-4.57-5.14-6.86-11.74-6.86-19.78c0-8.09,2.53-15.48,7.6-22.18c5.07-6.69,11.6-10.04,19.59-10.04c4.94,0,9.04,1.57,12.29,4.72
			V809.5c0-6.44-0.15-10.4-0.45-11.88c-0.3-1.47-0.79-2.48-1.46-3.03c-0.67-0.55-1.49-0.82-2.44-0.82c-1.1,0-2.52,0.35-4.27,1.05
			l-0.75-2.17l16.71-6.89h2.77v65.04c0,6.59,0.16,10.63,0.49,12.1c0.32,1.47,0.82,2.5,1.5,3.07c0.67,0.58,1.46,0.86,2.36,0.86
			c1.1,0,2.57-0.35,4.42-1.05l0.67,2.1l-16.71,6.97h-2.85V866.82z M431.47,862.47v-29c-0.25-2.8-0.99-5.33-2.21-7.6
			c-1.22-2.27-2.85-4-4.87-5.17c-2.02-1.17-4.01-1.76-5.96-1.76c-3.6,0-6.82,1.62-9.67,4.87c-3.7,4.25-5.54,10.47-5.54,18.66
			c0,8.24,1.8,14.57,5.39,18.99c3.6,4.42,7.62,6.63,12.06,6.63C424.38,868.09,427.97,866.22,431.47,862.47z"/>
		<path class="st2" d="M474.85,814.82V860c0,3.55,0.25,5.91,0.75,7.08c0.5,1.17,1.25,2.04,2.25,2.59c1,0.55,2.85,0.82,5.54,0.82
			v2.25h-27.35v-2.25c2.75,0,4.58-0.26,5.51-0.79c0.92-0.53,1.66-1.4,2.21-2.62c0.55-1.22,0.82-3.58,0.82-7.08v-21.65
			c0-6.09-0.18-10.04-0.52-11.84c-0.3-1.35-0.75-2.27-1.35-2.77c-0.6-0.5-1.45-0.75-2.55-0.75c-1.15,0-2.52,0.3-4.12,0.9l-0.9-2.17
			l17.01-6.89H474.85z M469.76,785.37c1.7,0,3.15,0.6,4.35,1.8c1.2,1.2,1.8,2.67,1.8,4.42c0,1.7-0.6,3.16-1.8,4.38
			c-1.2,1.23-2.65,1.84-4.35,1.84c-1.75,0-3.23-0.61-4.46-1.84c-1.22-1.22-1.84-2.68-1.84-4.38c0-1.75,0.6-3.22,1.8-4.42
			C466.46,785.97,467.96,785.37,469.76,785.37z"/>
		<path class="st2" d="M541.76,820.74v72.38c0,3.6,0.24,5.91,0.71,6.93c0.47,1.02,1.24,1.82,2.29,2.4c1.05,0.57,3.1,0.86,6.14,0.86
			v2.25h-28.4v-2.25h1.12c2.3,0,4.05-0.33,5.24-0.97c0.85-0.45,1.51-1.26,1.99-2.43c0.47-1.17,0.71-3.43,0.71-6.78v-24.28
			c-3.7,4.45-6.94,7.48-9.74,9.1c-2.8,1.62-5.69,2.44-8.69,2.44c-5.45,0-10.3-2.49-14.57-7.46c-4.27-4.97-6.41-11.6-6.41-19.89
			c0-9.54,2.82-17.31,8.47-23.3c5.64-5.99,12.46-8.99,20.45-8.99c2.35,0,4.5,0.33,6.44,0.97c1.95,0.65,3.72,1.62,5.32,2.92
			c2.35-1.15,4.62-2.45,6.82-3.9H541.76z M531.57,865.02v-26.45c0-3.05-0.4-5.46-1.2-7.23c-0.8-1.77-2.22-3.27-4.27-4.5
			c-2.05-1.22-4.35-1.84-6.89-1.84c-4.6,0-8.53,1.95-11.8,5.84c-3.27,3.9-4.91,9.79-4.91,17.68c0,7.59,1.66,13.35,4.98,17.27
			c3.32,3.92,7.33,5.88,12.03,5.88c2.45,0,4.61-0.52,6.48-1.57C527.86,869.07,529.72,867.37,531.57,865.02z"/>
		<path class="st0" d="M617.44,787.92v28.85h-2.25c-0.75-5.54-2.07-9.95-3.97-13.22c-1.9-3.27-4.61-5.87-8.13-7.79
			c-3.52-1.92-7.18-2.88-10.98-2.88c-4.25,0-7.77,1.3-10.56,3.9c-2.8,2.6-4.2,5.54-4.2,8.84c0,2.55,0.9,4.87,2.7,6.97
			c2.5,3.1,8.54,7.19,18.13,12.29c7.74,4.2,13.04,7.41,15.88,9.63c2.85,2.22,5.04,4.85,6.59,7.87c1.55,3.02,2.32,6.21,2.32,9.55
			c0,6.29-2.45,11.73-7.34,16.3c-4.9,4.57-11.19,6.86-18.88,6.86c-2.45,0-4.72-0.18-6.82-0.53c-1.3-0.2-3.95-0.95-7.94-2.25
			c-4-1.3-6.52-1.95-7.57-1.95c-1.05,0-1.86,0.3-2.44,0.9c-0.57,0.6-1.01,1.87-1.31,3.82h-2.25v-28.55h2.25
			c1.05,5.94,2.47,10.4,4.27,13.37c1.8,2.97,4.56,5.45,8.28,7.42c3.72,1.97,7.78,2.96,12.18,2.96c5.14,0,9.2-1.35,12.18-4.05
			c2.97-2.7,4.46-5.89,4.46-9.59c0-2.05-0.56-4.12-1.69-6.22c-1.12-2.1-2.88-4.05-5.28-5.84c-1.6-1.2-5.96-3.8-13.07-7.79
			c-7.12-4-12.19-7.18-15.21-9.55c-3.02-2.37-5.31-4.99-6.86-7.87c-1.55-2.87-2.32-6.03-2.32-9.48c0-5.99,2.3-11.15,6.89-15.47
			c4.6-4.32,10.44-6.48,17.53-6.48c4.4,0,9.07,1.1,14.01,3.3c2.3,1,3.92,1.5,4.87,1.5c1.05,0,1.91-0.31,2.58-0.94
			c0.67-0.62,1.24-1.91,1.69-3.86H617.44z"/>
		<path class="st0" d="M651.83,785.37v41.13c4.54-4.99,8.15-8.19,10.83-9.59c2.67-1.4,5.33-2.1,7.98-2.1c3.2,0,5.94,0.87,8.24,2.62
			c2.3,1.75,4,4.52,5.1,8.32c0.8,2.6,1.2,7.39,1.2,14.39V860c0,3.6,0.27,6.04,0.82,7.34c0.4,1,1.1,1.77,2.1,2.32
			c1,0.55,2.8,0.82,5.39,0.82v2.25h-27.65v-2.25h1.27c2.65,0,4.48-0.4,5.51-1.2c1.02-0.8,1.74-1.97,2.14-3.52
			c0.1-0.65,0.15-2.57,0.15-5.77v-19.86c0-6.14-0.31-10.19-0.94-12.14c-0.63-1.95-1.64-3.4-3.03-4.35c-1.4-0.95-3.07-1.42-5.02-1.42
			c-2,0-4.08,0.54-6.26,1.61c-2.17,1.07-4.78,3.21-7.83,6.41V860c0,3.85,0.21,6.24,0.64,7.19c0.42,0.95,1.22,1.74,2.4,2.36
			c1.17,0.63,3.18,0.94,6.03,0.94v2.25h-27.87v-2.25c2.5,0,4.47-0.37,5.92-1.12c0.8-0.4,1.45-1.17,1.95-2.32
			c0.5-1.15,0.75-3.5,0.75-7.04v-50.95c0-6.39-0.15-10.33-0.45-11.8c-0.3-1.47-0.78-2.48-1.42-3.03c-0.65-0.55-1.5-0.82-2.55-0.82
			c-0.85,0-2.25,0.33-4.2,0.97l-0.82-2.1l16.78-6.89H651.83z"/>
		<path class="st0" d="M731.25,864.87c-5.79,4.5-9.42,7.07-10.86,7.72c-2.2,1.05-4.55,1.57-7.04,1.57c-3.9,0-7.11-1.34-9.63-4.01
			c-2.52-2.67-3.78-6.18-3.78-10.53c0-2.7,0.6-5.07,1.8-7.12c1.7-2.75,4.63-5.36,8.8-7.83c4.17-2.47,11.08-5.46,20.72-8.95v-2.25
			c0-5.59-0.89-9.44-2.66-11.54c-1.77-2.1-4.36-3.15-7.75-3.15c-2.6,0-4.65,0.7-6.14,2.1c-1.55,1.4-2.32,3-2.32,4.8l0.08,3.6
			c0,1.85-0.48,3.28-1.42,4.31c-0.95,1.02-2.22,1.54-3.82,1.54c-1.5,0-2.72-0.52-3.67-1.57c-0.95-1.05-1.42-2.5-1.42-4.35
			c0-3.55,1.8-6.79,5.39-9.74c3.6-2.95,8.64-4.42,15.13-4.42c4.99,0,9.09,0.85,12.29,2.55c2.45,1.25,4.24,3.22,5.39,5.92
			c0.7,1.8,1.05,5.42,1.05,10.86v19.11c0,5.35,0.11,8.62,0.34,9.81c0.22,1.2,0.56,2.01,1.01,2.43c0.45,0.43,1,0.64,1.65,0.64
			c0.65,0,1.22-0.15,1.72-0.45c0.85-0.55,2.5-2.05,4.95-4.5v3.45c-4.6,6.14-8.97,9.22-13.11,9.22c-2.05,0-3.66-0.7-4.83-2.1
			C731.91,870.59,731.3,868.22,731.25,864.87z M731.25,860.9v-21.43c-6.19,2.45-10.19,4.17-11.99,5.17
			c-3.25,1.8-5.56,3.68-6.93,5.66c-1.37,1.97-2.06,4.13-2.06,6.48c0,2.95,0.87,5.39,2.62,7.34c1.75,1.95,3.77,2.92,6.07,2.92
			C722.06,867.04,726.15,865,731.25,860.9z"/>
		<path class="st0" d="M771.93,785.37v41.13c4.54-4.99,8.15-8.19,10.83-9.59c2.67-1.4,5.33-2.1,7.98-2.1c3.2,0,5.94,0.87,8.24,2.62
			c2.3,1.75,4,4.52,5.1,8.32c0.8,2.6,1.2,7.39,1.2,14.39V860c0,3.6,0.27,6.04,0.82,7.34c0.4,1,1.1,1.77,2.1,2.32
			c1,0.55,2.8,0.82,5.39,0.82v2.25h-27.65v-2.25h1.27c2.65,0,4.48-0.4,5.51-1.2c1.02-0.8,1.74-1.97,2.14-3.52
			c0.1-0.65,0.15-2.57,0.15-5.77v-19.86c0-6.14-0.31-10.19-0.94-12.14c-0.63-1.95-1.64-3.4-3.03-4.35c-1.4-0.95-3.07-1.42-5.02-1.42
			c-2,0-4.08,0.54-6.26,1.61c-2.17,1.07-4.78,3.21-7.83,6.41V860c0,3.85,0.21,6.24,0.64,7.19c0.42,0.95,1.22,1.74,2.4,2.36
			c1.17,0.63,3.18,0.94,6.03,0.94v2.25h-27.87v-2.25c2.5,0,4.47-0.37,5.92-1.12c0.8-0.4,1.45-1.17,1.95-2.32
			c0.5-1.15,0.75-3.5,0.75-7.04v-50.95c0-6.39-0.15-10.33-0.45-11.8c-0.3-1.47-0.78-2.48-1.42-3.03c-0.65-0.55-1.5-0.82-2.55-0.82
			c-0.85,0-2.25,0.33-4.2,0.97l-0.82-2.1l16.78-6.89H771.93z"/>
	</g>
</g>
</svg>
