<?xml version="1.0" encoding="utf-8"?>
<!-- Generator: Adobe Illustrator 24.1.3, SVG Export Plug-In . SVG Version: 6.00 Build 0)  -->
<svg version="1.1" id="Layer_1" xmlns="http://www.w3.org/2000/svg" xmlns:xlink="http://www.w3.org/1999/xlink" x="0px" y="0px"
	 viewBox="0 0 1080 1080" style="enable-background:new 0 0 1080 1080;" xml:space="preserve">
<style type="text/css">
	.st0{fill:#00346A;}
	.st1{fill:#FEC701;}
	.st2{fill:#16A3B5;}
	.st3{fill:#108089;}
	.st4{fill:#D8D8D8;}
	.st5{fill:#C9C9C9;}
	.st6{fill:#666666;}
	.st7{fill:#16A3B5;stroke:#16A3B5;stroke-width:2;stroke-miterlimit:10;}
	.st8{fill:#00346A;stroke:#00346A;stroke-width:2;stroke-miterlimit:10;}
</style>
<g>
	<g>
		<g>
			<g>
				<path class="st0" d="M329.3,500.8c1.2-1.4,1-2.1-0.2-3.1c-1.6-1.4-3.3-2.9-4.8-4.2c0.9-1.5,1.7-1.1,2.4-1.1
					c24.6,0,49.3,0,73.9-0.1c2.7,0,3.3,0.8,3.2,3.3c-0.2,3.5-0.2,7,0,10.5c0.1,2.3-0.6,2.9-2.9,2.9c-16.9-0.1-33.8,0-50.7,0
					c-1.5,0-3,0-4.5,0.5c-3.3,1.2-5.3,4.5-4.8,8c0.4,3.1,3.4,5.8,6.9,5.8c9.5,0.1,19,0,28.4,0c7,0,13.7,0.9,19.4,5.5
					c0.7,0.6,1.4,1.2,2,1.8c-0.3,0-13.7,2.2-17.5,2.7c-3.9,0.5-9,0.9-17.9,1.6c0,0-4.5,0.8-6.9,4.9l0,0c-2.6,0-5.2,0-7.8,0
					c-9.9-0.1-17.5-4.5-21.5-13.3C322,517.5,322.6,508.5,329.3,500.8z"/>
				<path class="st0" d="M361.7,572.2c0.2,0.1,0.4,0.2,0.6,0.3h-14.9l-0.9-0.3l0,0l-46.5-15.6c24.2,0,38.9,0,58.8,0
					c-4.2,2.3-2.5,9.9-2.5,9.9c0.7,1.9,2.1,3.4,3.3,4.5c0,0,0,0,0.1,0C360.1,571.3,360.9,571.8,361.7,572.2z"/>
				<path class="st1" d="M395,542.4l-6.4,0.6l-2,0.9c-0.1-0.3-0.3-0.5-0.5-0.7l5.5-0.6C391.7,542.6,393.1,542.5,395,542.4z"/>
				<path class="st0" d="M408.8,436.8c-32.3-35.9-86-48.4-130.9-30.4c-59.1,23.8-89,87-69.7,147.7c0.6,1.8,0.3,3-1.1,4.3
					c-4.3,4.3-8.5,8.7-12.7,13.1c0.9,1.7,2.5,0.9,3.9,0.9c32.4,0,54.2,0.1,86.5,0.1l-1.6-1.1c-3.6-2.4-5.3-6.9-3.8-11.1
					c0.9-2.4,2.3-3.9,2.3-3.9h-21.6c-14,0-17.5,0-31.6,0c-2.4,0-3.4-0.9-4.2-3c-13-37.7-7.5-72.4,18.1-103
					c22.4-26.7,51.9-38.8,86.7-36.4c28.2,2,51.7,14.4,70.4,35.8c0.7,0.8,1.2,2.1,2.4,2.1c6,0.1,12,0,18.6,0
					C416.9,446.2,413,441.5,408.8,436.8z"/>
				<g>
					<path class="st2" d="M307.7,619.7c2.5,0.3,4.9,0.5,7.4,0.6c-0.7,0-8.2,0.1-12.2,0c-4.2-0.2-26.4-1.6-34.9-3.7
						c0,0-12.9-2.5-18.8-4.5c-4.1-3.2-8.1-6.6-11.8-10.4c-5.7-5.7-10.9-11.9-15.6-19.2c6.5,0,12.6,0,18.8,0c1.1,0,1.5,1.2,2.2,1.8
						C260,604.2,281.6,616.7,307.7,619.7z"/>
					<path class="st2" d="M412.1,566.4c3.2-0.6,9.9-2.1,20-4.9c-4.7,11.5-11.5,22.4-20.4,32.7l-16.1-5.4c4.3-4.7,8.4-9.9,12.2-15.6
						C409.4,571,410.8,568.6,412.1,566.4z"/>
					<path class="st2" d="M434.5,481c3.9,13.5,5.8,26.6,5.7,39.1c-2.4,1.1-8.7,3.8-15.6,5.7c1.1-14.6-1.2-29.6-6.6-44.9
						c-0.8-2.3-2-3-4.5-3C363.8,478,314,478,264.2,478c-0.9,0-1.8,0-2.6,0c-3.9,0.4-6.9,3.6-6.8,7.5c0.1,3.6,3.3,6.8,7.1,6.8
						c10,0.1,20,0,30.1,0c4.4,0,8.7,0.4,12.7,2.4c10.8,5.4,16.2,16.2,13.8,27.9c-2.2,10.6-12,19.1-23.4,19.3
						c-18.4,0.3-36.8,0.1-55.3,0.2c-1.7,0-2.3-0.5-2.2-2.2c0.1-3.7,0.2-7.4,0-11.1c-0.1-2.5,0.5-3.3,3.2-3.3
						c17.2,0.1,34.4,0.1,51.7,0c5.1,0,8.6-2.7,9.3-6.9c0.9-5.2-3-9.7-8.8-9.8c-10.8-0.1-21.6,0.1-32.4-0.1
						c-10.5-0.2-19.9-7.6-22.1-17.6c-1.7-7.6-1-15,4.6-21.2c1.3-1.5,1-2.3-0.3-3.4c-1.5-1.3-2.7-2.8-4.1-4.2l0,0l0,0
						c1-0.7,2.1-0.4,3.2-0.4c67.5,0,135.1,0,202.6,0c1.2,0,2.7-0.6,3.6,0.9c-4,4.2-8,8.6-12.2,12.7
						C434.1,477.3,433.8,478.7,434.5,481z"/>
					<path class="st3" d="M448,462.9c-0.9-0.7-2.1-0.6-3.1-0.6c-68.3,0-136.6,0-204.8,0c-0.4,0-0.9,0-1.3,0c-0.5-1.8,1-0.9,1.4-0.9
						c4.6-0.1,9.2,0,13.7,0c64.1,0,128.2,0,192.4,0c0.6,0,1.3-0.1,2,0C449.1,461.6,449.1,461.6,448,462.9z"/>
					<path class="st4" d="M284.8,572.5c0.3,0.2,0.5,0.3,0.8,0.5c-29.7,0-48.7,0-78.4,0c-4,0-8.1,0-12.1,0c-0.6,0-1.4,0.3-1.5-0.6
						c0-0.3,0.6-0.6,0.9-0.9c1.4,0.9,3,0.6,4.5,0.6c32,0,53.4,0,85.4,0C284.5,572.3,284.7,572.4,284.8,572.5z"/>
					<path class="st5" d="M363.1,573c-3.3,0-6.6,0-14.3,0l-1.5-0.5l-0.9-0.3c7.5,0,11.4,0,15,0h0.2c0.2,0.1,0.4,0.2,0.6,0.3
						C362.7,572.8,363,573,363.1,573z"/>
				</g>
			</g>
			<g>
				<path class="st6" d="M389.5,614.9c-5.6-0.8-6.9-4.6-8.1-8.5c-1.7-5.2-3.6-10.4-5.4-15.6c1.2-0.7,2.1,0,3,0.3
					c13.6,4.5,27.1,9.1,40.7,13.7c1.4,0.5,2.7,0.5,4.1,0.1c15.3-4.8,30.7-9.5,46-14.3c11.1-3.6,21.7-2.7,31.7,3.6
					c6.3,3.9,7.4,9,2.4,14.5c-5.1,5.7-11.6,9.1-18.6,11.5c-6.8,2.3-13.7,4.2-20.6,6.4c-0.7,0.2-1.7,0-1.9,0.9s0.7,1.2,1.2,1.7
					c8.4,7.5,16.8,14.9,25.2,22.3c8.9,7.8,17.8,15.7,26.7,23.6c0.2,0.2,0.4,0.4,0.6,0.6c1.3,1.4,2.9,2.8,1.6,4.8
					c-1.3,2.1-3.3,1.5-5.3,0.8c-19.3-8-38.5-15.9-57.7-23.9c-13.6-5.7-27.3-11.3-40.9-17c-1.3-0.6-2.5-0.4-3.9-0.3
					c-20.1,2.8-40.2,3.3-60.3,0.3c-1.9-0.3-3.9-0.6-5.6-1.7c-2.5-1.5-2.9-3.9-1.2-6.2c1.3-1.7,3.1-2.7,4.9-3.6
					c2.3-1.2,3.6-3,3.9-5.7c0.8-10.8,1.4-21.6,1.7-32.5c0.1-4.2,1-4.6,5.1-4.3c5.4,0.4,8.6,2.7,9.9,8.3c1.2,5,3.6,9.6,4.9,14.6
					C375.7,617.1,382.3,618.8,389.5,614.9z"/>
				<path class="st6" d="M312.2,656.1c-30.7-0.1-60.7-4.3-89.5-15.7c-19.1-7.6-36.6-17.9-51-32.9c-9.6-10-16.5-21.4-18.6-35.4
					c-2-13.5,1.5-25.8,8.4-37.2c6.4-10.5,15.1-19,24.7-26.6c0.8-0.6,1.8-1,2.7-1.3c1.5-0.4,2.8,0.1,3.8,1.2c0.9,1.1,0.8,2.4,0.2,3.7
					c-0.7,1.7-2.2,2.8-3.4,4.1c-10.2,10.7-15.6,23.2-14,38.2c1.3,12,6.9,22.2,14.5,31.3c11.1,13.3,25.7,21.4,41.5,27.7
					c21.2,8.5,43.3,12.9,66,14.2c9.6,0.6,19.1,0.3,28.6-0.1c2.2-0.1,5.2-0.5,5.6,2.3c0.3,2.7-2.7,3.2-4.9,3.6
					c-11.6,2.6-23.3,3.1-35.1,2.6c-32.2-1.5-62.8-8.9-91.1-24.8c-3.2-1.8-6.1-4-9.2-5.9c-1.2-0.7-2.6-2.6-3.8-1.1
					c-1.4,1.8,0.9,2.7,2,3.6c12.4,11,26.6,18.9,42,24.9c21.1,8.2,43,12.5,65.5,14.4c18.8,1.6,37.7,1.4,56.6-0.1c1.5-0.1,3-0.1,4.5,0
					c1.4,0,2.7,0.5,3,2c0.3,1.7-0.9,2.6-2.2,3.1c-2.7,1.1-5.7,1.2-8.5,1.5C337.8,655.2,325,656.2,312.2,656.1z"/>
				<path class="st6" d="M501.4,496.4c-0.3,10.4-4.5,18.7-11.2,25.9c-10.6,11.5-24.1,18.8-38.3,24.7c-2.7,1.1-5.4,2.1-8.1,3.1
					c-2.9,1.1-5.8,2.1-8.7,3c-6.3,2-12.6,3.7-19,5.2c-1.6,0.4-3.3,0.7-4.9,1.1c-11,2.3-22.1,4-33.3,5.1c-2.9,0.3-5.8,0.6-8.7,0.9
					c-1,0.1-2.1,0.1-3-0.1c-1.1-0.2-2.2-0.7-2.3-2.1c-0.1-1.5,0.7-2.4,2-2.7c2.4-0.5,4.8-0.8,7.2-1.2c13.3-1.8,26.5-4.1,39.4-7.5
					c2.4-0.6,4.7-1.2,7-1.9c6.1-1.8,12.2-3.8,18.1-6.1c1.8-0.7,3.6-1.5,5.5-2.3c2.5-1.1,5.1-2.2,7.5-3.5
					c9.9-4.9,19.2-10.8,27.2-18.5c0.3-0.3,0.7-0.6,1-0.9c0.6-0.7,1.8-1.4,1-2.3c-0.8-0.9-1.7,0.1-2.4,0.6
					c-10.9,7.8-22.7,13.5-35,17.9c-1.2,0.4-2.3,0.8-3.5,1.2c-4.3,1.5-8.7,2.7-13.2,3.9c-1.2,0.3-2.4,0.6-3.6,0.9
					c-2.7,0.6-5.4,1.3-8.1,1.8c-15.3,3.2-30.8,4.9-46.4,5.5c-3.9,0.1-6-0.9-5.7-3c0.4-3.1,3.1-2.7,5.3-2.9
					c16.3-1.2,32.4-3.3,48.2-7.2c2.8-0.7,5.6-1.5,8.4-2.3c3-0.9,5.9-1.8,8.8-2.8c2.5-0.9,4.9-1.8,7.4-2.7c0.6-0.2,1.2-0.5,1.8-0.7
					c10.5-4.3,20.4-9.9,28.6-18.2c5.4-5.6,9.2-12.1,8.7-20.3c-0.5-7.3-4.4-13.1-9.1-18.2c-8.4-9-18.5-15.7-29.8-20.6
					c-0.9-0.4-1.9-0.8-2.7-1.4c-1.5-0.9-2.4-2.2-1.7-4c0.7-1.8,2.3-2.6,4.1-2.1c3,0.9,5.9,1.9,8.7,3c15.2,6.1,29.7,13.4,41.1,25.5
					C496.6,477.8,501.2,486.4,501.4,496.4z"/>
				<path class="st6" d="M345,598.9c-2.8-1.7-5.2-3.1-7.6-4.5c-15.7-9.3-31.4-18.7-47.2-28.1c-0.4-0.3-0.8-0.4-1.2-0.7
					c-1.1-0.7-1.9-1.7-1.2-3c0.6-1.3,1.8-1.4,3.1-1c6,2,12,4,18.1,6c12.2,4.1,24.4,8.2,36.6,12.3c2,0.6,3.2,1.2,1.3,3.4
					c-1.3,1.5-1.3,3.4-1.4,5.3C345.4,591.8,345.3,595.1,345,598.9z"/>
			</g>
		</g>
	</g>
	<g>
		<path class="st7" d="M560.9,500.6v28.2h-1.5c-0.6-5.4-1.5-9.8-2.8-12.9c-1.3-3.2-3.2-5.8-5.6-7.6c-2.4-1.9-5-2.8-7.7-2.8
			c-3,0-5.4,1.3-7.4,3.8c-2,2.5-2.9,5.4-2.9,8.6c0,2.4,0.6,4.8,1.9,6.9c1.7,3,5.9,7,12.6,12c5.4,4.1,9.1,7.2,11.1,9.4
			c2,2.2,3.5,4.7,4.6,7.7c1.1,3,1.6,6.1,1.6,9.3c0,6.2-1.7,11.5-5.1,16c-3.4,4.5-7.8,6.8-13.2,6.8c-1.7,0-3.3-0.2-4.7-0.5
			c-0.9-0.2-2.8-1-5.5-2.3c-2.8-1.3-4.5-2-5.3-2c-0.7,0-1.3,0.3-1.7,0.9c-0.4,0.6-0.7,1.9-0.9,3.7h-1.6v-27.9h1.6
			c0.7,5.8,1.7,10.2,3,13.1c1.3,2.9,3.2,5.4,5.8,7.2c2.6,1.9,5.4,2.9,8.5,2.9c3.6,0,6.4-1.3,8.5-3.9s3.1-5.8,3.1-9.4
			c0-2-0.4-4-1.2-6.1c-0.8-2.1-2-3.9-3.7-5.7c-1.1-1.2-4.2-3.7-9.1-7.6c-4.9-3.9-8.5-7-10.6-9.3s-3.7-4.9-4.8-7.7
			c-1-2.8-1.6-5.9-1.6-9.3c0-5.9,1.6-11,4.8-15.2s7.2-6.4,12.2-6.4c3.1,0,6.3,1.1,9.8,3.2c1.6,1,2.7,1.5,3.4,1.5
			c0.7,0,1.3-0.3,1.8-0.9c0.5-0.6,0.8-1.9,1.2-3.8H560.9L560.9,500.6z"/>
		<path class="st7" d="M596.1,575.9c-4,4.4-6.6,6.9-7.6,7.5c-1.5,1-3.1,1.6-4.9,1.6c-2.7,0-4.9-1.3-6.7-3.9
			c-1.7-2.6-2.6-6.1-2.6-10.3c0-2.6,0.4-5,1.3-6.9c1.2-2.7,3.2-5.3,6.1-7.6c2.9-2.4,7.7-5.4,14.4-8.8v-2.3c0-5.5-0.6-9.2-1.9-11.3
			c-1.3-2.1-3.1-3.1-5.4-3.1c-1.8,0-3.2,0.7-4.3,2.1c-1,1.4-1.6,2.9-1.6,4.7l0.1,3.5c0,1.8-0.3,3.2-1,4.2c-0.7,1-1.5,1.5-2.6,1.5
			c-1,0-1.9-0.5-2.6-1.6c-0.7-1.1-1-2.4-1-4.2c0-3.4,1.3-6.7,3.8-9.5c2.5-2.9,6-4.3,10.5-4.3c3.5,0,6.3,0.8,8.6,2.4
			c1.7,1.3,2.9,3.1,3.8,5.8c0.5,1.8,0.7,5.3,0.7,10.7v18.7c0,5.2,0.1,8.4,0.2,9.6c0.1,1.2,0.4,2,0.7,2.3c0.3,0.4,0.7,0.6,1.1,0.6
			c0.4,0,0.8-0.2,1.2-0.5c0.6-0.5,1.7-2,3.5-4.4v3.4c-3.2,6-6.3,9-9.1,9c-1.4,0-2.6-0.7-3.3-2.1
			C596.6,581.5,596.2,579.1,596.1,575.9z M596.1,572v-20.9c-4.3,2.4-7.1,4.1-8.4,5.1c-2.3,1.8-3.9,3.6-4.8,5.6c-1,2-1.5,4-1.5,6.4
			c0,2.9,0.6,5.3,1.8,7.1c1.2,1.9,2.6,2.8,4.3,2.8C589.7,578,592.6,576,596.1,572z"/>
		<path class="st7" d="M641.2,577.8c-2,2.7-3.8,4.8-5.6,6c-1.8,1.3-3.8,1.9-5.9,1.9c-4.3,0-8-2.5-11.2-7.5c-3.2-5-4.8-11.5-4.8-19.4
			c0-7.9,1.7-15.2,5.3-21.7c3.6-6.6,8.1-9.8,13.7-9.8c3.4,0,6.3,1.6,8.6,4.6v-10.1c0-6.3-0.1-10.2-0.3-11.6c-0.2-1.5-0.6-2.4-1-2.9
			c-0.5-0.5-1-0.8-1.7-0.8c-0.8,0-1.7,0.3-3,1l-0.6-2.2l11.6-6.8h2V562c0,6.5,0.1,10.4,0.3,11.8c0.2,1.5,0.6,2.4,1,3
			c0.5,0.6,1,0.9,1.7,0.9c0.8,0,1.8-0.3,3.1-1l0.5,2.1l-11.6,6.9h-2L641.2,577.8L641.2,577.8z M641.2,573.6v-28.4
			c-0.2-2.7-0.7-5.2-1.5-7.4s-2-3.9-3.4-5.1s-2.8-1.8-4.2-1.8c-2.5,0-4.7,1.6-6.8,4.8c-2.6,4.2-3.8,10.3-3.8,18.3
			c0,8,1.3,14.3,3.8,18.6c2.5,4.3,5.3,6.5,8.4,6.5C636.3,579,638.8,577.2,641.2,573.6z"/>
		<path class="st7" d="M671.5,526.9v44.2c0,3.4,0.2,5.8,0.6,6.9c0.3,1.2,0.9,2,1.6,2.5c0.7,0.5,2,0.8,3.8,0.8v2.3h-19.2v-2.3
			c2,0,3.2-0.3,3.8-0.8c0.6-0.5,1.2-1.4,1.5-2.5s0.6-3.5,0.6-6.9v-21.2c0-6-0.1-9.8-0.3-11.5c-0.2-1.3-0.6-2.3-1-2.7
			c-0.4-0.5-1-0.8-1.7-0.8c-0.8,0-1.7,0.3-2.9,0.9l-0.6-2.2l11.9-6.8L671.5,526.9L671.5,526.9z M667.9,498.1c1.2,0,2.2,0.6,3.1,1.8
			s1.3,2.6,1.3,4.3s-0.4,3.1-1.3,4.3c-0.8,1.2-1.8,1.8-3.1,1.8s-2.2-0.6-3.1-1.8c-0.8-1.2-1.3-2.6-1.3-4.3c0-1.8,0.4-3.1,1.3-4.3
			C665.6,498.7,666.7,498.1,667.9,498.1z"/>
		<path class="st7" d="M718.1,532.7v70.9c0,3.5,0.1,5.8,0.5,6.8c0.3,1,0.8,1.8,1.6,2.3c0.7,0.6,2.2,0.9,4.3,0.9v2.3h-19.8v-2.3h0.8
			c1.6,0,2.8-0.3,3.6-1c0.6-0.5,1-1.3,1.4-2.3c0.3-1.2,0.5-3.3,0.5-6.7v-23.8c-2.6,4.4-4.8,7.3-6.8,8.9c-2,1.6-4,2.3-6.1,2.3
			c-3.8,0-7.2-2.4-10.2-7.3s-4.5-11.4-4.5-19.5c0-9.3,2-16.9,5.9-22.8c3.9-5.9,8.7-8.8,14.3-8.8c1.6,0,3.1,0.3,4.5,1
			c1.4,0.7,2.6,1.6,3.7,2.8c1.6-1.2,3.2-2.4,4.7-3.8L718.1,532.7L718.1,532.7z M711,576v-25.9c0-2.9-0.3-5.4-0.8-7
			c-0.6-1.8-1.5-3.2-3-4.4c-1.4-1.2-3-1.8-4.8-1.8c-3.2,0-5.9,2-8.2,5.7c-2.3,3.8-3.4,9.6-3.4,17.3c0,7.4,1.2,13,3.5,16.9
			c2.3,3.8,5.1,5.8,8.4,5.8c1.7,0,3.2-0.5,4.5-1.6C708.4,580,709.7,578.4,711,576z"/>
		<path class="st8" d="M770.8,500.6v28.2h-1.6c-0.6-5.4-1.5-9.8-2.8-12.9c-1.3-3.2-3.2-5.8-5.6-7.6c-2.4-1.9-5-2.8-7.7-2.8
			c-3,0-5.4,1.3-7.4,3.8c-2,2.5-2.9,5.4-2.9,8.6c0,2.4,0.6,4.8,1.9,6.9c1.7,3,5.9,7,12.6,12c5.4,4.1,9.1,7.2,11.1,9.4
			c2,2.2,3.5,4.7,4.6,7.7c1,2.9,1.6,6.1,1.6,9.3c0,6.2-1.7,11.5-5.1,16c-3.4,4.5-7.8,6.8-13.2,6.8c-1.7,0-3.3-0.2-4.7-0.5
			c-0.9-0.2-2.8-1-5.5-2.3c-2.8-1.3-4.5-2-5.3-2c-0.8,0-1.3,0.3-1.7,0.9c-0.4,0.6-0.7,1.9-0.9,3.7h-1.6v-27.9h1.6
			c0.7,5.8,1.7,10.2,3,13.1c1.3,2.9,3.2,5.4,5.8,7.2c2.6,2,5.4,2.9,8.5,2.9c3.6,0,6.4-1.3,8.5-3.9s3.1-5.8,3.1-9.4
			c0-2-0.4-4-1.2-6.1c-0.8-2.1-2-3.9-3.7-5.7c-1.1-1.2-4.2-3.7-9.1-7.6c-4.9-3.9-8.5-7-10.6-9.3s-3.7-4.9-4.8-7.7
			c-1-2.8-1.6-5.9-1.6-9.3c0-5.9,1.6-11,4.8-15.2s7.2-6.4,12.2-6.4c3.1,0,6.3,1.1,9.8,3.2c1.6,1,2.7,1.5,3.4,1.5
			c0.7,0,1.3-0.3,1.8-0.9c0.5-0.6,0.8-1.9,1.2-3.8H770.8L770.8,500.6z"/>
		<path class="st8" d="M794.8,498.1v40.2c3.1-4.9,5.7-8,7.5-9.4c1.9-1.4,3.7-2.1,5.6-2.1c2.2,0,4.1,0.9,5.7,2.5
			c1.6,1.7,2.8,4.4,3.6,8.1c0.6,2.5,0.8,7.2,0.8,14.1v19.5c0,3.5,0.2,5.9,0.6,7.1c0.3,1,0.8,1.8,1.5,2.3c0.7,0.5,2,0.8,3.8,0.8v2.3
			h-19.3v-2.3h0.9c1.9,0,3.1-0.4,3.8-1.2c0.7-0.8,1.2-2,1.5-3.4c0.1-0.7,0.1-2.5,0.1-5.7v-19.5c0-6-0.2-10-0.6-11.8
			c-0.4-1.9-1.1-3.3-2.1-4.2c-1-1-2.2-1.4-3.5-1.4c-1.4,0-2.9,0.5-4.4,1.6s-3.3,3.1-5.4,6.3v29.2c0,3.7,0.1,6.1,0.4,7
			s0.8,1.7,1.7,2.3c0.8,0.6,2.2,0.9,4.2,0.9v2.3h-19.4v-2.3c1.7,0,3.1-0.4,4.1-1.1c0.6-0.4,1-1.2,1.4-2.3c0.3-1.1,0.6-3.4,0.6-6.9
			v-49.9c0-6.3-0.1-10.1-0.3-11.5s-0.6-2.4-1-2.9c-0.5-0.5-1-0.8-1.7-0.8c-0.6,0-1.6,0.3-2.9,1l-0.6-2.1l11.7-6.8L794.8,498.1
			L794.8,498.1z"/>
		<path class="st8" d="M850.2,575.9c-4,4.4-6.6,6.9-7.6,7.5c-1.5,1-3.1,1.6-4.9,1.6c-2.7,0-4.9-1.3-6.7-3.9
			c-1.7-2.6-2.6-6.1-2.6-10.3c0-2.6,0.4-5,1.3-6.9c1.2-2.7,3.2-5.3,6.1-7.6c2.9-2.4,7.7-5.4,14.4-8.8v-2.3c0-5.5-0.6-9.2-1.9-11.3
			s-3.1-3.1-5.4-3.1c-1.8,0-3.3,0.7-4.3,2.1c-1,1.4-1.6,2.9-1.6,4.7l0.1,3.5c0,1.8-0.3,3.2-1,4.2c-0.7,1-1.5,1.5-2.6,1.5
			c-1,0-1.9-0.5-2.6-1.6c-0.7-1.1-1-2.4-1-4.2c0-3.4,1.3-6.7,3.8-9.5c2.5-2.9,6-4.3,10.5-4.3c3.5,0,6.3,0.8,8.6,2.4
			c1.7,1.3,2.9,3.1,3.8,5.8c0.5,1.8,0.7,5.3,0.7,10.7v18.7c0,5.2,0.1,8.4,0.2,9.6c0.1,1.2,0.4,2,0.7,2.3c0.3,0.4,0.7,0.6,1.2,0.6
			c0.5,0,0.8-0.2,1.2-0.5c0.6-0.5,1.7-2,3.5-4.4v3.4c-3.2,6-6.3,9-9.1,9c-1.4,0-2.6-0.7-3.3-2.1
			C850.6,581.5,850.2,579.1,850.2,575.9z M850.2,572v-20.9c-4.3,2.4-7.1,4.1-8.4,5.1c-2.3,1.8-3.9,3.6-4.8,5.6c-1,2-1.5,4-1.5,6.4
			c0,2.9,0.6,5.3,1.8,7.1c1.2,1.9,2.6,2.8,4.3,2.8C843.8,578,846.7,576,850.2,572z"/>
		<path class="st8" d="M878.5,498.1v40.2c3.1-4.9,5.7-8,7.5-9.4c1.9-1.4,3.7-2.1,5.6-2.1c2.2,0,4.1,0.9,5.7,2.5
			c1.6,1.7,2.8,4.4,3.6,8.1c0.6,2.5,0.8,7.2,0.8,14.1v19.5c0,3.5,0.2,5.9,0.6,7.1c0.3,1,0.8,1.8,1.5,2.3s2,0.8,3.8,0.8v2.3h-19.3
			v-2.3h0.9c1.9,0,3.1-0.4,3.8-1.2c0.7-0.8,1.2-2,1.5-3.4c0.1-0.7,0.1-2.5,0.1-5.7v-19.5c0-6-0.2-10-0.6-11.8
			c-0.4-1.9-1.1-3.3-2.1-4.2c-1-1-2.2-1.4-3.5-1.4c-1.4,0-2.9,0.5-4.4,1.6c-1.5,1.1-3.3,3.1-5.4,6.3v29.2c0,3.7,0.1,6.1,0.4,7
			c0.3,1,0.8,1.7,1.7,2.3c0.8,0.6,2.2,0.9,4.2,0.9v2.3h-19.4v-2.3c1.7,0,3.1-0.4,4.1-1.1c0.6-0.4,1-1.2,1.4-2.3
			c0.3-1.1,0.6-3.4,0.6-6.9v-49.9c0-6.3-0.1-10.1-0.3-11.5s-0.6-2.4-1-2.9c-0.5-0.5-1-0.8-1.7-0.8c-0.6,0-1.6,0.3-2.9,1l-0.6-2.1
			l11.7-6.8L878.5,498.1L878.5,498.1z"/>
	</g>
</g>
</svg>
